<svg xmlns="http://www.w3.org/2000/svg" xmlns:xlink="http://www.w3.org/1999/xlink" viewBox="0 0 145.27 168.03"><defs><style>.cls-1{fill:url(#Dégradé_sans_nom_15);}</style><linearGradient id="Dégradé_sans_nom_15" y1="84.02" x2="145.27" y2="84.02" gradientUnits="userSpaceOnUse"><stop offset="0" stop-color="#0d2578"/><stop offset="0.22" stop-color="#0d2572"/><stop offset="0.53" stop-color="#0d2561"/><stop offset="0.87" stop-color="#0d2644"/><stop offset="1" stop-color="#0d2638"/></linearGradient></defs><g id="Calque_2" data-name="Calque 2"><g id="Calque_1-2" data-name="Calque 1"><path class="cls-1" d="M97.17,168l2-1.5a1,1,0,0,0,.06-1.33,5.69,5.69,0,0,1-.77-4.59,65.62,65.62,0,0,0,8-8.75,4.67,4.67,0,0,1,3.94.27.77.77,0,0,0,1.08-.13l1.43-2.22,1.44-2.21a.77.77,0,0,0-.32-1,4.6,4.6,0,0,1-1.83-3.46c1.26-2.26,2.2-4.23,2.92-5.73.18-.45.35-.9.52-1.35a4.15,4.15,0,0,1,3.25-.81.68.68,0,0,0,.86-.42l.56-2.26.57-2.26a.67.67,0,0,0-.56-.77,4.15,4.15,0,0,1-2.44-2.14c.42-2.49.71-5.06.91-7.65a3.31,3.31,0,0,1,2.59-1.29.56.56,0,0,0,.62-.47l.1-1.9.11-1.91a.55.55,0,0,0-.57-.54,3.28,3.28,0,0,1-2.43-1.58c.07-2,.12-3.91.18-5.82a2.88,2.88,0,0,1,2.3-1.25.5.5,0,0,0,.54-.44l0-1.69.06-1.69a.5.5,0,0,0-.52-.47,3,3,0,0,1-2.17-1.3c.12-2.12.28-4.16.53-6.07a2.57,2.57,0,0,1,2.07-.7.42.42,0,0,0,.52-.3l.28-1.42.27-1.43a.43.43,0,0,0-.37-.47,2.51,2.51,0,0,1-1.65-1.37,16.62,16.62,0,0,1,2.41-5.25,2.29,2.29,0,0,1,2,.72.4.4,0,0,0,.55.1l1-.86,1.06-.87a.39.39,0,0,0,0-.56A2.42,2.42,0,0,1,128,79c2.61-1,6-1.12,10.57,0,8.19,2.35,9-1.46,1.88-4.52-7.88-3.3-29.33-6-32.46,23.83-1.86,43.37-32.58,67.38-59.17,61a51,51,0,0,0,14.56-5.72,5.91,5.91,0,0,1,3.57,2,1,1,0,0,0,1.31.31L70.9,154l2.65-1.93a1,1,0,0,0,.11-1.35,5.69,5.69,0,0,1-.58-4.88,45.91,45.91,0,0,0,4.26-5.23,5.4,5.4,0,0,1,4,.29.89.89,0,0,0,1.22-.23L84.07,138l1.51-2.62a.89.89,0,0,0-.42-1.17,5.25,5.25,0,0,1-2.32-3.92q.94-2.4,1.68-4.84a4.66,4.66,0,0,1,4-1.53.8.8,0,0,0,1-.56l.49-2.71.49-2.71a.81.81,0,0,0-.72-.87,4.91,4.91,0,0,1-3.1-2.43,62.69,62.69,0,0,0,.4-6.78,4.34,4.34,0,0,1,3.11-2,.73.73,0,0,0,.73-.71l-.16-2.46-.17-2.47a.72.72,0,0,0-.81-.61A4.27,4.27,0,0,1,86.42,98a54.76,54.76,0,0,0-1.09-5.48c-.08-.34-.17-.67-.25-1a3.84,3.84,0,0,1,2.17-2.38.63.63,0,0,0,.45-.77L87,86.29l-.71-2.05a.63.63,0,0,0-.83-.33,3.87,3.87,0,0,1-3.17-.55c-.69-1.58-1.44-3.07-2.19-4.46a3,3,0,0,1,1.32-2.39.52.52,0,0,0,.24-.69l-.91-1.53-.91-1.52a.52.52,0,0,0-.72-.12,3.09,3.09,0,0,1-2.7,0c-.89-1.46-1.73-2.83-2.47-4.18a2.7,2.7,0,0,1,1.44-1.7.45.45,0,0,0,.29-.57l-.57-1.43-.57-1.44a.47.47,0,0,0-.61-.21,2.68,2.68,0,0,1-2.32-.31,13.76,13.76,0,0,1-.29-5,2.37,2.37,0,0,1,2-.49.39.39,0,0,0,.51-.23l.37-1.3.38-1.31a.4.4,0,0,0-.31-.47,2.4,2.4,0,0,1-1.39-1.31,44.32,44.32,0,0,1,7.87-10.83c3.3-2.93,1.24-5-2.75-2.72C62.48,48,60.15,63.39,66.26,77.5c15.93,36.29-20.67,84.89-46.07,48.5-2-4,.71-7,4.73-5.48a8.32,8.32,0,0,1,3.68,3.59c2.45,4.22,5.08,3.34,7.19,1.24,4.3-1.54,6.27-5.37,4.72-9.68.74-3.49-.3-7.13-5.48-6-11.11.21-19.33-3.06-19.33-9.48,2.14,2.06,7.81,5.3,12.58,5.3C78,27.69,17.26,0,0,0V168ZM33.71,117.75a2,2,0,0,1,1.73-1.1c1.15-2,2.25-3.22,2.67-3s0,1.86-.86,3.93a2,2,0,0,1,.13,2.05,2,2,0,0,1-1.73,1.1c-1.15,2-2.24,3.22-2.67,3s0-1.85.86-3.92A2,2,0,0,1,33.71,117.75Z"/></g></g></svg>