<svg xmlns="http://www.w3.org/2000/svg" xmlns:xlink="http://www.w3.org/1999/xlink" viewBox="0 0 145.93 168.03"><defs><style>.cls-1{fill:url(#Dégradé_sans_nom_4);}</style><linearGradient id="Dégradé_sans_nom_4" x1="151.66" y1="84.02" x2="36.24" y2="84.02" gradientUnits="userSpaceOnUse"><stop offset="0" stop-color="#e53120"/><stop offset="0.24" stop-color="#df3120"/><stop offset="0.56" stop-color="#ce3120"/><stop offset="0.93" stop-color="#b13120"/><stop offset="1" stop-color="#ab3120"/></linearGradient></defs><g id="Calque_2" data-name="Calque 2"><g id="Calque_1-2" data-name="Calque 1"><path class="cls-1" d="M6.72,79.48c4.53-1.15,8-1.07,10.57,0a2.43,2.43,0,0,1-.39,1.9.4.4,0,0,0,0,.56l1.05.86,1.05.87a.4.4,0,0,0,.55-.1,2.35,2.35,0,0,1,2-.73A17.07,17.07,0,0,1,24,88.06a2.54,2.54,0,0,1-1.65,1.38.43.43,0,0,0-.38.46l.28,1.44.27,1.42a.43.43,0,0,0,.52.3,2.53,2.53,0,0,1,2.08.7c.24,1.91.41,3.94.52,6.07a3,3,0,0,1-2.16,1.3.48.48,0,0,0-.52.46l.05,1.7L23,105a.51.51,0,0,0,.55.44,2.9,2.9,0,0,1,2.3,1.25c.05,1.91.11,3.85.17,5.81a3.26,3.26,0,0,1-2.43,1.59.57.57,0,0,0-.57.54l.11,1.9.11,1.9a.55.55,0,0,0,.62.48,3.33,3.33,0,0,1,2.58,1.28c.21,2.6.5,5.16.92,7.66A4.16,4.16,0,0,1,24.94,130a.67.67,0,0,0-.55.78L25,133l.56,2.26a.68.68,0,0,0,.86.42,4.13,4.13,0,0,1,3.25.8c.17.46.34.91.53,1.35.71,1.51,1.65,3.48,2.9,5.74A4.57,4.57,0,0,1,31.23,147a.77.77,0,0,0-.31,1l1.44,2.21,1.44,2.21a.78.78,0,0,0,1.08.14,4.64,4.64,0,0,1,3.93-.27,66.26,66.26,0,0,0,8,8.74,5.75,5.75,0,0,1-.76,4.6.94.94,0,0,0,.06,1.33l1.31,1h98.47V0h-.3C129.29,0,66.88,27.63,117,106c4.77,0,10.44-3.23,12.58-5.29,0,6.42-8.21,9.69-19.33,9.48-5.18-1.13-6.22,2.5-5.48,6-1.54,4.31.42,8.14,4.73,9.68,2.11,2.1,4.73,3,7.18-1.24a8.49,8.49,0,0,1,3.68-3.59c4-1.52,6.69,1.46,4.73,5.48C99.68,162.87,63.08,114.27,79,78c6.11-14.11,3.79-29.54-11.74-38.29-4-2.3-6-.21-2.74,2.72a44.86,44.86,0,0,1,7.87,10.83A2.46,2.46,0,0,1,71,54.55a.4.4,0,0,0-.31.47l.37,1.31.38,1.31a.38.38,0,0,0,.51.23,2.35,2.35,0,0,1,2,.49,13.28,13.28,0,0,1-.29,5,2.65,2.65,0,0,1-2.31.32.46.46,0,0,0-.61.2l-.57,1.45-.57,1.43a.44.44,0,0,0,.29.56A2.78,2.78,0,0,1,71.33,69c-.74,1.34-1.58,2.72-2.47,4.17a3.05,3.05,0,0,1-2.7,0,.52.52,0,0,0-.72.13l-.91,1.52-.9,1.53a.52.52,0,0,0,.23.69,3,3,0,0,1,1.33,2.39c-.76,1.39-1.5,2.87-2.2,4.46a3.83,3.83,0,0,1-3.17.55.63.63,0,0,0-.83.33l-.71,2.06-.71,2a.65.65,0,0,0,.46.78A3.81,3.81,0,0,1,60.19,92c-.08.34-.17.67-.25,1a54.79,54.79,0,0,0-1.08,5.48,4.29,4.29,0,0,1-3.38,1.64.73.73,0,0,0-.81.61l-.16,2.47-.17,2.46a.72.72,0,0,0,.73.71,4.32,4.32,0,0,1,3.11,2c0,2.22.15,4.49.4,6.78a4.91,4.91,0,0,1-3.1,2.43.81.81,0,0,0-.72.87l.49,2.71.49,2.71a.8.8,0,0,0,1,.56,4.72,4.72,0,0,1,4,1.53q.72,2.44,1.67,4.84a5.24,5.24,0,0,1-2.32,3.92.9.9,0,0,0-.42,1.17l1.51,2.62,1.51,2.62a.89.89,0,0,0,1.22.23,5.36,5.36,0,0,1,4-.29,46.8,46.8,0,0,0,4.26,5.23,5.75,5.75,0,0,1-.58,4.88,1,1,0,0,0,.1,1.35l2.66,1.93L77,156.4a1,1,0,0,0,1.31-.31,5.94,5.94,0,0,1,3.57-2,50.87,50.87,0,0,0,14.56,5.72c-26.58,6.38-57.31-17.63-59.17-61C34.17,69,12.72,71.65,4.84,75-2.27,78-1.47,81.82,6.72,79.48Zm105.57,44.73c-.43.22-1.53-1.06-2.67-3a2,2,0,0,1-1.74-1.09,2.06,2.06,0,0,1,.14-2c-.9-2.08-1.28-3.71-.86-3.93s1.52,1.06,2.67,3a2,2,0,0,1,1.6,3.14C112.32,122.36,112.71,124,112.29,124.21Z"/></g></g></svg>