<svg xmlns="http://www.w3.org/2000/svg" xmlns:xlink="http://www.w3.org/1999/xlink" viewBox="0 0 160.46 96.3"><defs><style>.cls-1{fill:url(#Dégradé_sans_nom_15);}</style><linearGradient id="Dégradé_sans_nom_15" y1="48.15" x2="160.46" y2="48.15" gradientUnits="userSpaceOnUse"><stop offset="0" stop-color="#0d2578"/><stop offset="0.22" stop-color="#0d2572"/><stop offset="0.53" stop-color="#0d2561"/><stop offset="0.87" stop-color="#0d2644"/><stop offset="1" stop-color="#0d2638"/></linearGradient></defs><g id="Calque_2" data-name="Calque 2"><g id="Calque_1-2" data-name="Calque 1"><path class="cls-1" d="M14.87,96.3H71.28a13.55,13.55,0,0,1-1.47-3C65.33,80,69.42,71.8,80.62,64.55,91.76,71.8,95.91,80,91.43,93.35a13.11,13.11,0,0,1-1.47,3h55.25a61.19,61.19,0,0,0,6.65-6.18c7-7.71,11.8-21.28,6-31.17-3.76-6.52-9-11.93-12.92-18.38-5.07-8.44-6-27.49,9.56-22.61.79.26,1.71-.59,1.25-1.32-6-9.09-16.87-6.19-23.59.93-11.67,12.32-2.38,30.11,4.61,41.71C146,74.7,130.11,79.65,119,84.59A45.51,45.51,0,0,0,116.74,74c-3.3-9.49-9.43-16.74-17.07-22.34,9.22-7.18,18-16.14,20-24.71,3-13-1.32-26.23-13.58-26.95C96-.56,88.79,6.43,87.61,13.87c-.13.73.85,1.26,1.32.73,13.11-13,25.3,5.47,12.32,14.5A166.52,166.52,0,0,1,80.56,41.22,175,175,0,0,1,59.93,29.1C47,20.07,59.2,1.62,72.32,14.6a.84.84,0,0,0,1.38-.73C72.52,6.36,65.27-.56,55.25,0,43,.76,38.77,13.94,41.67,27c2,8.57,10.75,17.53,19.91,24.71C54,57.3,47.87,64.55,44.57,74a45.33,45.33,0,0,0-2.3,10.61c-11.34-4.48-27.55-8.7-19-24.51C29.75,48.21,38.11,30,25.92,18.22c-7-6.78-18-9.16-23.59.2-.46.79.53,1.52,1.25,1.32,15.29-5.6,15.29,13.44,10.61,22.14-3.56,6.59-8.56,12.26-12.06,19C-3.14,71,2.13,84.32,9.58,91.71A58.12,58.12,0,0,0,14.87,96.3Z"/></g></g></svg>